<?xml version="1.0" standalone="no"?>
<!DOCTYPE svg PUBLIC "-//W3C//DTD SVG 20010904//EN"
 "http://www.w3.org/TR/2001/REC-SVG-20010904/DTD/svg10.dtd">
<svg version="1.0" xmlns="http://www.w3.org/2000/svg"
 width="400.000000pt" height="400.000000pt" viewBox="0 0 400.000000 400.000000"
 preserveAspectRatio="xMidYMid meet">
<metadata>
Created by potrace 1.11, written by Peter Selinger 2001-2013
</metadata>
<g transform="translate(0.000000,400.000000) scale(0.100000,-0.100000)"
fill="#000000" stroke="none">
<path d="M3586 3312 c2 -2 -5 -17 -15 -31 -9 -14 -41 -72 -69 -128 l-52 -102
25 -73 c13 -40 29 -72 34 -70 16 3 13 -14 -4 -28 -8 -7 -13 -16 -10 -20 3 -4
-4 -10 -15 -13 -23 -6 -27 -37 -5 -37 18 0 30 -24 19 -41 -4 -6 -8 -26 -9 -43
-3 -31 -12 -90 -21 -136 -2 -14 -7 -38 -9 -55 -3 -16 -8 -43 -12 -60 -3 -16
-7 -43 -9 -60 -2 -16 -6 -41 -9 -55 -2 -14 -10 -50 -16 -80 -17 -88 -16 -87
-57 -89 -20 0 -57 -3 -82 -6 -25 -2 -79 -7 -120 -11 -41 -3 -78 -8 -81 -10 -4
-2 -14 2 -22 11 -9 9 -28 13 -48 10 -122 -14 -130 -12 -130 38 1 23 0 78 -2
122 -2 67 1 83 16 98 11 11 21 39 24 67 4 43 2 49 -17 55 -12 4 -19 12 -17 18
3 8 32 11 94 9 69 -3 91 -1 95 10 7 18 3 199 -6 278 -15 131 -18 126 64 150
39 11 70 25 70 30 0 6 -10 8 -22 6 -13 -2 -34 1 -48 6 -14 6 -36 12 -50 14
-14 3 -32 7 -41 10 -9 2 -22 -2 -29 -11 -7 -8 -10 -15 -7 -15 3 0 0 -19 -5
-42 -5 -24 -11 -52 -13 -63 -9 -48 -52 -174 -64 -189 -18 -22 -80 -13 -101 14
-12 14 -30 19 -80 21 -60 2 -107 19 -147 51 -7 6 -25 7 -40 4 -16 -4 -88 -8
-160 -10 -79 -1 -137 -6 -144 -13 -6 -6 -23 -8 -44 -3 -19 4 -36 5 -39 2 -16
-16 -31 91 -40 288 l-3 65 -44 1 c-24 1 -57 2 -74 4 -16 1 -43 1 -60 1 -29 -2
-28 -3 20 -27 66 -32 87 -58 80 -98 -12 -73 -17 -95 -42 -171 -31 -93 -38
-196 -13 -201 8 -1 33 -5 55 -9 81 -13 92 -25 39 -45 -24 -9 -28 -24 -27 -80
2 -52 -124 -99 -332 -124 -22 -3 -58 -11 -80 -18 -22 -8 -47 -14 -55 -13 -8 1
-19 -2 -25 -6 -5 -3 -59 -6 -120 -5 -104 2 -113 4 -165 34 -66 39 -137 73
-159 77 -9 2 -17 4 -18 5 -4 3 -7 4 -73 18 -55 12 -68 13 -172 12 -58 0 -176
-31 -215 -56 -13 -8 -44 -23 -70 -34 -27 -10 -42 -19 -34 -19 9 -1 2 -11 -16
-24 -36 -26 -119 -122 -137 -157 -23 -45 -28 -80 -11 -80 8 0 15 4 15 9 0 12
79 100 100 111 15 8 17 6 13 -10 -3 -11 -9 -20 -14 -20 -9 0 -62 -55 -87 -91
-12 -18 -5 -15 34 12 27 18 50 33 51 31 5 -3 37 11 52 22 14 11 32 16 71 19
20 2 25 -2 24 -21 -1 -20 3 -22 30 -16 35 7 33 7 64 5 12 0 22 -6 22 -12 0 -5
-4 -8 -8 -5 -4 2 -14 1 -22 -5 -11 -6 -5 -9 22 -9 43 0 70 -9 63 -21 -3 -5 6
-11 20 -15 20 -5 24 -11 19 -29 -3 -13 -1 -26 5 -29 6 -4 11 -12 11 -17 0 -6
-5 -7 -10 -4 -16 10 -11 -1 7 -16 14 -12 16 -12 8 0 -5 10 -4 12 3 7 7 -4 12
-12 12 -17 0 -6 13 -29 28 -52 48 -71 48 -70 18 -65 -14 3 -26 2 -26 -3 0 -4
-10 -10 -22 -12 -16 -3 -12 -5 11 -6 41 -1 33 -14 -10 -17 -17 -2 -39 -10 -50
-20 -22 -20 -26 -42 -4 -24 22 18 92 6 121 -21 32 -30 23 -37 -14 -10 -32 22
-42 26 -42 13 0 -4 21 -19 48 -32 26 -14 49 -28 52 -31 3 -3 19 -13 35 -22 27
-14 27 -16 8 -17 -12 0 -25 -5 -28 -10 -4 -6 -3 -9 2 -8 14 4 103 -24 103 -33
0 -5 -11 -4 -25 1 -46 18 -34 -6 18 -34 40 -21 45 -26 24 -23 -17 3 -25 1 -19
-5 8 -8 54 -16 126 -22 16 -1 34 -10 41 -19 7 -9 19 -17 28 -17 9 0 18 -4 21
-9 5 -8 211 -9 211 -2 0 2 8 4 19 6 10 2 23 8 29 14 22 22 29 10 23 -44 -5
-50 -2 -61 31 -115 l35 -60 -25 -42 c-23 -39 -99 -147 -148 -208 -23 -30 -24
-35 -1 -37 9 -1 44 -11 77 -22 32 -11 63 -17 67 -15 4 3 8 0 8 -5 0 -6 13 -11
29 -11 17 0 32 -4 35 -9 3 -4 20 -11 37 -15 32 -6 32 -6 24 -54 -4 -26 -8 -72
-9 -102 -1 -47 2 -55 17 -54 9 1 17 -1 17 -5 0 -3 18 -7 40 -7 27 -1 38 2 33
10 -5 8 -3 8 8 0 15 -12 123 -13 135 -1 4 4 14 1 22 -6 13 -10 14 -9 7 2 -6
11 -2 13 19 9 14 -3 29 -1 33 5 3 6 1 7 -5 3 -7 -4 -12 -3 -12 2 0 6 11 13 25
16 16 4 23 11 19 18 -4 7 -3 8 4 4 7 -4 12 -2 12 3 0 6 -7 11 -15 11 -23 0
-18 12 25 57 38 41 42 42 106 44 56 2 67 5 71 20 3 12 14 19 28 19 18 0 24 -7
30 -37 4 -21 7 -40 7 -43 0 -3 4 -13 9 -22 7 -13 6 -18 -3 -18 -7 0 -14 -11
-14 -25 -1 -15 2 -22 9 -18 5 3 7 2 4 -4 -4 -6 7 -11 26 -12 55 -4 57 -4 57
-14 0 -5 6 -5 13 2 10 8 17 7 25 -1 8 -8 12 -8 12 -1 0 11 41 10 59 -2 6 -3
11 -1 11 5 0 8 6 8 20 0 14 -8 20 -8 20 0 0 7 6 8 19 1 10 -6 21 -8 24 -5 12
12 77 13 77 1 0 -7 4 -6 10 3 5 8 10 11 10 6 0 -5 7 -3 15 4 8 6 20 8 26 4 7
-4 10 -3 7 2 -26 49 -48 109 -48 133 0 31 7 35 65 45 16 3 31 10 33 16 2 6 10
6 24 -1 11 -6 27 -7 36 -4 9 4 26 9 37 11 48 8 132 31 152 42 l23 13 -44 63
c-50 70 -65 97 -142 242 -51 97 -52 102 -38 129 16 32 62 164 68 198 3 12 5
34 5 50 1 27 22 42 75 53 11 2 49 18 85 36 36 17 72 33 79 34 7 1 35 19 64 39
l51 37 -7 -49 c-4 -26 -8 -57 -10 -68 -2 -11 -7 -38 -10 -60 -12 -75 -16 -100
-56 -325 -45 -251 -47 -259 -55 -315 -3 -23 -8 -52 -10 -65 -3 -14 -10 -56
-16 -95 -7 -38 -18 -80 -25 -92 -19 -30 -18 -44 3 -36 10 4 14 2 10 -4 -3 -5
0 -10 8 -10 8 0 15 3 16 6 0 3 2 29 3 56 3 45 11 101 22 160 3 11 7 36 10 55
2 19 8 49 11 65 4 17 7 37 9 45 6 47 14 98 19 120 2 14 11 68 20 120 8 52 17
106 20 120 3 14 7 39 10 55 3 17 7 41 10 55 3 14 7 41 10 60 6 38 25 146 30
170 2 8 4 20 4 26 1 6 12 23 26 38 14 16 25 39 25 55 0 20 6 30 19 34 12 3 24
18 29 38 8 30 6 37 -20 61 -16 16 -27 31 -25 35 3 5 8 31 11 60 3 28 11 73 17
100 6 26 12 57 14 68 3 27 16 114 21 145 3 14 7 39 10 55 12 80 16 101 22 110
4 5 7 19 7 30 0 11 9 21 20 25 11 3 21 13 23 24 2 12 -1 17 -10 14 -10 -4 -13
5 -13 33 0 25 4 39 12 39 7 0 13 -5 13 -11 0 -15 20 7 59 64 26 38 31 54 26
75 -4 15 -9 38 -11 51 -6 45 -48 216 -54 222 -4 4 -5 4 -4 1z"/>
<path d="M675 2200 c-3 -5 -1 -10 4 -10 6 0 11 5 11 10 0 6 -2 10 -4 10 -3 0
-8 -4 -11 -10z"/>
<path d="M2324 859 c-3 -6 -12 -8 -20 -5 -16 6 -18 -12 -5 -33 8 -12 12 -12
25 -2 21 18 20 3 -1 -23 -18 -21 -18 -21 3 -3 21 18 39 23 30 9 -3 -5 1 -9 9
-9 13 0 13 3 0 17 -9 10 -11 20 -5 26 6 6 3 14 -10 22 -13 8 -21 8 -26 1z m2
-24 c-9 -9 -16 -13 -16 -8 0 5 5 14 12 21 6 6 14 10 16 7 2 -2 -3 -11 -12 -20z"/>
<path d="M2811 867 c-2 -23 20 -44 46 -42 15 1 35 -2 44 -6 13 -6 16 -3 15 13
0 12 -7 23 -14 24 -7 1 -8 0 -2 -3 5 -2 10 -9 10 -14 0 -12 -35 -6 -54 10 -8
7 -19 10 -25 7 -5 -3 -12 0 -14 6 -3 7 -6 9 -6 5z m43 -25 c3 -5 -1 -9 -9 -9
-8 0 -15 4 -15 9 0 4 4 8 9 8 6 0 12 -4 15 -8z"/>
<path d="M3020 866 c0 -2 8 -10 18 -17 15 -13 16 -12 3 4 -13 16 -21 21 -21
13z"/>
<path d="M2211 854 c-1 -6 -16 -10 -37 -9 -19 2 -33 0 -30 -3 3 -3 -3 -12 -14
-19 -11 -8 -18 -18 -15 -23 3 -4 0 -11 -5 -13 -6 -3 -5 -4 2 -2 7 1 12 8 10
15 -2 8 3 10 13 6 9 -3 13 -2 10 4 -3 6 1 10 9 10 20 0 20 -5 0 -24 -8 -9 -11
-16 -5 -16 12 0 33 35 25 43 -3 3 6 4 20 3 14 0 24 -5 22 -11 -2 -5 -9 -9 -15
-7 -7 1 -10 -2 -7 -7 4 -5 0 -12 -6 -14 -9 -4 -10 -6 -1 -6 6 -1 15 4 18 9 5
8 12 7 23 -2 15 -12 16 -11 3 5 -12 15 -11 17 8 17 11 0 21 4 21 10 0 5 -7 7
-15 4 -9 -4 -18 2 -24 17 -5 13 -10 19 -10 13z"/>
<path d="M2233 843 c0 -8 6 -12 13 -9 8 3 16 1 19 -4 11 -18 27 -11 17 7 -12
20 -49 25 -49 6z"/>
<path d="M2933 827 c0 -12 1 -17 4 -10 2 7 11 9 19 6 8 -3 14 1 14 8 0 7 -3 9
-7 6 -3 -4 -11 -3 -17 3 -8 6 -12 2 -13 -13z"/>
<path d="M2985 841 c-3 -5 -2 -12 3 -15 5 -3 9 1 9 9 0 17 -3 19 -12 6z"/>
<path d="M3010 840 c0 -5 5 -10 11 -10 5 0 7 5 4 10 -3 6 -8 10 -11 10 -2 0
-4 -4 -4 -10z"/>
<path d="M1626 798 c3 -4 9 -8 15 -8 5 0 9 4 9 8 0 5 -7 9 -15 9 -8 0 -12 -4
-9 -9z"/>
<path d="M2270 802 c0 -5 7 -9 15 -9 8 0 12 4 9 9 -3 4 -9 8 -15 8 -5 0 -9 -4
-9 -8z"/>
<path d="M1490 779 c0 -5 5 -7 10 -4 6 3 10 8 10 11 0 2 -4 4 -10 4 -5 0 -10
-5 -10 -11z"/>
</g>
</svg>
