<?xml version="1.0" encoding="utf-8"?>
<!-- Generator: Adobe Illustrator 21.0.2, SVG Export Plug-In . SVG Version: 6.00 Build 0)  -->
<svg version="1.1" id="Layer_1" xmlns="http://www.w3.org/2000/svg" xmlns:xlink="http://www.w3.org/1999/xlink" x="0px" y="0px"
	 width="50px" height="50px" viewBox="0 0 50 50" enable-background="new 0 0 50 50" xml:space="preserve">
<g>
	<g>
		<g>
			<path fill="#FFFFFF" d="M13,5.3L0,11.7l10.3-0.4l12.9-6.9L13,5.3z M11.7,8.6C10.8,8.9,10,9.1,10,8.9C9.9,8.8,10.6,8.3,11.5,8
				c0.9-0.3,1.7-0.5,1.7-0.3C13.3,7.8,12.6,8.3,11.7,8.6z"/>
		</g>
		<g>
			<path fill="#FFFFFF" d="M9.8,11.8l-9.6,0.4L6,27.7l9.6,1.3L9.8,11.8z M4.1,17.4C3.6,17.6,2.9,17,2.5,16c-0.4-0.9-0.3-1.8,0.2-2
				c0.5-0.2,1.2,0.4,1.6,1.3C4.7,16.3,4.6,17.2,4.1,17.4z M7.5,26.3C7,26.5,6.3,25.9,5.9,25c-0.4-0.9-0.2-1.8,0.3-2
				c0.5-0.2,1.2,0.4,1.5,1.3C8.1,25.2,8,26.1,7.5,26.3z M9.8,17.5c-0.6,0.2-1.3-0.4-1.7-1.5c-0.4-1-0.3-2,0.3-2.2
				c0.6-0.2,1.3,0.4,1.7,1.5C10.5,16.3,10.3,17.3,9.8,17.5z M13,27.2c-0.5,0.2-1.3-0.5-1.6-1.5c-0.3-1-0.2-2,0.4-2.2
				c0.5-0.2,1.3,0.5,1.6,1.5C13.7,26,13.5,27,13,27.2z"/>
		</g>
		<g>
			<path fill="#FFFFFF" d="M42,28.5l-6,17l8.5-6L50,24.4L42,28.5z M39.6,40.8c-0.5,1-1.2,1.6-1.4,1.5c-0.3-0.1-0.1-1,0.5-2
				c0.5-1,1.2-1.6,1.4-1.5S40.2,39.9,39.6,40.8z M43.9,34.5c-0.5,0.9-1.1,1.5-1.4,1.4c-0.3-0.2-0.1-1,0.4-1.9
				c0.5-0.9,1.1-1.5,1.4-1.4C44.6,32.8,44.4,33.6,43.9,34.5z M46.4,29.9c-0.3-0.1-0.1-1,0.4-1.9c0.5-0.9,1.1-1.5,1.4-1.4
				c0.3,0.1,0.1,1-0.4,1.9C47.3,29.5,46.6,30.1,46.4,29.9z"/>
		</g>
		<g>
			<path fill="#FFFFFF" d="M25.4,18.2l2.6-1L23.8,4.6l-13.2,7.2L16.2,29l6.2-3.9l2.7-6.6L25.4,18.2z M17.7,25.7
				c-0.9,0-1.7-0.9-1.7-2.1c0-1.1,0.7-2.1,1.7-2.1c0.9,0,1.7,0.9,1.7,2.1C19.4,24.8,18.7,25.7,17.7,25.7z M22.4,11.5
				c-0.9,0-1.6-0.9-1.6-1.9c0-1.1,0.7-1.9,1.6-1.9c0.9,0,1.6,0.9,1.6,1.9C24,10.6,23.3,11.5,22.4,11.5z"/>
			<path fill="#FFFFFF" d="M26.1,19.5l-6.6,16.2l16.1,9.8l6-17.3L26.1,19.5z M23.9,36.6c-1,0-1.8-0.9-1.8-2c0-1.1,0.8-2,1.8-2
				c1,0,1.8,0.9,1.8,2C25.7,35.7,24.9,36.6,23.9,36.6z M25.6,24.8C25.6,24.8,25.6,24.8,25.6,24.8c0-1.2,0.9-2.1,1.9-2.1
				c0.3,0,0.7,0.1,1,0.3c0.6,0.4,0.9,1,0.9,1.8c0,1.2-0.8,2.1-1.9,2.1C26.4,26.9,25.6,26,25.6,24.8z M28.4,32.4
				c0-1.2,0.8-2.1,1.9-2.1c1,0,1.9,0.9,1.9,2.1c0,1.2-0.8,2.1-1.9,2.1C29.2,34.5,28.4,33.5,28.4,32.4z M33.3,42.1
				c-1.1,0-2-0.9-2-2.1c0-1.2,0.9-2.1,2-2.1c1.1,0,2,0.9,2,2.1C35.3,41.2,34.4,42.1,33.3,42.1z M37,32.2c-1,0-1.9-0.9-1.9-2.1
				c0-1.2,0.8-2.1,1.9-2.1s1.9,0.9,1.9,2.1C38.9,31.2,38,32.2,37,32.2z"/>
			<path fill="#FFFFFF" d="M35,16l-8.7,3.2L42,27.9l8-4L35,16z M33,21.1c-0.1,0.4-1.1,0.3-2.1,0c-0.6-0.2-1.1-0.5-1.3-0.8l-0.2-0.5
				c0,0,0,0,0-0.1c0.2-0.3,1.1-0.3,2,0.1C32.4,20.1,33.1,20.7,33,21.1z M37.8,23.6c-0.1,0.4-1.1,0.3-2.1,0c-1-0.4-1.7-1-1.6-1.3
				c0.1-0.4,1.1-0.3,2.1,0C37.2,22.6,37.9,23.2,37.8,23.6z M38.1,19c-0.1,0.4-1.1,0.3-2.1,0c-1-0.4-1.7-1-1.6-1.3
				c0.1-0.4,1.1-0.3,2.1,0C37.5,18.1,38.2,18.7,38.1,19z M42.4,26c-0.1,0.4-1.1,0.3-2.1,0s-1.7-1-1.6-1.3c0.1-0.4,1.1-0.3,2.1,0
				C41.8,25.1,42.5,25.7,42.4,26z M42.4,21.4c-0.1,0.4-1.1,0.3-2.1,0c-1-0.4-1.7-1-1.6-1.3c0.1-0.4,1.1-0.3,2.1,0
				C41.9,20.4,42.6,21,42.4,21.4z M44.9,23.7c-1-0.4-1.7-1-1.6-1.3c0.1-0.4,1.1-0.3,2.1,0c1,0.4,1.7,1,1.6,1.3
				C46.8,24.1,45.9,24,44.9,23.7z"/>
		</g>
	</g>
</g>
</svg>
