<svg xmlns="http://www.w3.org/2000/svg" width="50" height="50"><path fill="#FFF" d="M13 5.3L0 11.7l10.3-.4 12.9-6.9-10.2.9zm-1.3 3.3c-.9.3-1.7.5-1.7.3-.1-.1.6-.6 1.5-.9.9-.3 1.7-.5 1.7-.3.1.1-.6.6-1.5.9zm-1.9 3.2l-9.6.4L6 27.7l9.6 1.3-5.8-17.2zm-5.7 5.6c-.5.2-1.2-.4-1.6-1.4-.4-.9-.3-1.8.2-2 .5-.2 1.2.4 1.6 1.3.4 1 .3 1.9-.2 2.1zm3.4 8.9c-.5.2-1.2-.4-1.6-1.3-.4-.9-.2-1.8.3-2 .5-.2 1.2.4 1.5 1.3.4.9.3 1.8-.2 2zm2.3-8.8c-.6.2-1.3-.4-1.7-1.5-.4-1-.3-2 .3-2.2.6-.2 1.3.4 1.7 1.5.4 1 .2 2-.3 2.2zm3.2 9.7c-.5.2-1.3-.5-1.6-1.5-.3-1-.2-2 .4-2.2.5-.2 1.3.5 1.6 1.5.3 1 .1 2-.4 2.2zm29 1.3l-6 17 8.5-6L50 24.4l-8 4.1zm-2.4 12.3c-.5 1-1.2 1.6-1.4 1.5-.3-.1-.1-1 .5-2 .5-1 1.2-1.6 1.4-1.5s.1 1.1-.5 2zm4.3-6.3c-.5.9-1.1 1.5-1.4 1.4-.3-.2-.1-1 .4-1.9.5-.9 1.1-1.5 1.4-1.4.3.2.1 1-.4 1.9zm2.5-4.6c-.3-.1-.1-1 .4-1.9.5-.9 1.1-1.5 1.4-1.4.3.1.1 1-.4 1.9-.5 1-1.2 1.6-1.4 1.4z"/><g fill="#FFF"><path d="M25.4 18.2l2.6-1-4.2-12.6-13.2 7.2L16.2 29l6.2-3.9 2.7-6.6.3-.3zm-7.7 7.5c-.9 0-1.7-.9-1.7-2.1 0-1.1.7-2.1 1.7-2.1.9 0 1.7.9 1.7 2.1 0 1.2-.7 2.1-1.7 2.1zm4.7-14.2c-.9 0-1.6-.9-1.6-1.9 0-1.1.7-1.9 1.6-1.9.9 0 1.6.9 1.6 1.9 0 1-.7 1.9-1.6 1.9z"/><path d="M26.1 19.5l-6.6 16.2 16.1 9.8 6-17.3-15.5-8.7zm-2.2 17.1c-1 0-1.8-.9-1.8-2s.8-2 1.8-2 1.8.9 1.8 2-.8 2-1.8 2zm1.7-11.8c0-1.2.9-2.1 1.9-2.1.3 0 .7.1 1 .3.6.4.9 1 .9 1.8 0 1.2-.8 2.1-1.9 2.1-1.1 0-1.9-.9-1.9-2.1zm2.8 7.6c0-1.2.8-2.1 1.9-2.1 1 0 1.9.9 1.9 2.1 0 1.2-.8 2.1-1.9 2.1-1.1 0-1.9-1-1.9-2.1zm4.9 9.7c-1.1 0-2-.9-2-2.1 0-1.2.9-2.1 2-2.1s2 .9 2 2.1c0 1.2-.9 2.1-2 2.1zm3.7-9.9c-1 0-1.9-.9-1.9-2.1 0-1.2.8-2.1 1.9-2.1s1.9.9 1.9 2.1c0 1.1-.9 2.1-1.9 2.1zM35 16l-8.7 3.2L42 27.9l8-4L35 16zm-2 5.1c-.1.4-1.1.3-2.1 0-.6-.2-1.1-.5-1.3-.8l-.2-.5v-.1c.2-.3 1.1-.3 2 .1 1 .3 1.7.9 1.6 1.3zm4.8 2.5c-.1.4-1.1.3-2.1 0-1-.4-1.7-1-1.6-1.3.1-.4 1.1-.3 2.1 0s1.7.9 1.6 1.3zm.3-4.6c-.1.4-1.1.3-2.1 0-1-.4-1.7-1-1.6-1.3.1-.4 1.1-.3 2.1 0 1 .4 1.7 1 1.6 1.3zm4.3 7c-.1.4-1.1.3-2.1 0s-1.7-1-1.6-1.3c.1-.4 1.1-.3 2.1 0 1 .4 1.7 1 1.6 1.3zm0-4.6c-.1.4-1.1.3-2.1 0-1-.4-1.7-1-1.6-1.3.1-.4 1.1-.3 2.1 0 1.1.3 1.8.9 1.6 1.3zm2.5 2.3c-1-.4-1.7-1-1.6-1.3.1-.4 1.1-.3 2.1 0 1 .4 1.7 1 1.6 1.3-.2.4-1.1.3-2.1 0z"/></g></svg>